# xmcd
#
# Track frame offsets: 
#        150
#        11867
#        37616
#        53783
#        78910
#        98247
#        123183
#        145234
#        161906
#        179951
#        194750
#        208830
#        225070
#        241974
#        273781
#        294707
#        313644
#
# Disc length: 4430 seconds
#
# Revision: 7
# Processed by: cddbd v1.5.2PL0 Copyright (c) Steve Scherf et al.
# Submitted via: ExactAudioCopyFreeDBPlugin 1.0
#
DISCID=ef114c11
DTITLE=Ирина Богушевская - Книга песен
DYEAR=2002
DGENRE=Jazz
TTITLE0=Такси
TTITLE1=Шарманка-Осень
TTITLE2=Рио-Рита
TTITLE3=Кафе "Экипаж"
TTITLE4=Чем ты дышишь
TTITLE5=Мой друг Серёжа
TTITLE6=Пилигрим
TTITLE7=Терпкий Вечер
TTITLE8=Танго "Прощай"
TTITLE9=Пароход
TTITLE10=Тридцать девятый трамвай
TTITLE11=Прощай, оружие
TTITLE12=Зал ожиданий
TTITLE13=Суламифь
TTITLE14=(bonus) Шарманка-Осень (к. версия)
TTITLE15=(bonus) Кафе "Экипаж" (к. версия)
TTITLE16=(bonus) Ангел моей печали (к. версия)
EXTD=YEAR: 2002
EXTT0=
EXTT1=
EXTT2=
EXTT3=
EXTT4=
EXTT5=
EXTT6=
EXTT7=
EXTT8=
EXTT9=
EXTT10=
EXTT11=
EXTT12=
EXTT13=
EXTT14=
EXTT15=
EXTT16=
PLAYORDER=
